<svg xmlns="http://www.w3.org/2000/svg" viewBox="0 0 128 128">
  <defs>
    <radialGradient id="g" cx="30%" cy="30%">
      <stop offset="0%" stop-color="#0ff"/><stop offset="100%" stop-color="#001922"/>
    </radialGradient>
    <filter id="glow"><feGaussianBlur stdDeviation="2.5" result="b"/><feMerge><feMergeNode in="b"/><feMergeNode in="SourceGraphic"/></feMerge></filter>
  </defs>
  <rect width="128" height="128" rx="18" fill="#0a1218"/>
  <path d="M64 16c14 10 28 10 28 10v26c0 22-12 34-28 44-16-10-28-22-28-44V26s14 0 28-10z"
        fill="url(#g)" stroke="#22e7d7" stroke-width="2" filter="url(#glow)"/>
  <path d="M54 34h20v6l6 10c4 6 2 14-5 18-12 6-20 6-32 0-7-4-9-12-5-18l6-10v-6z"
        fill="#061a1f" stroke="#9ee" stroke-width="1.6"/>
  <path d="M60 34h8v10l8 14c-11 5-21 5-32 0l8-14V34z" fill="#0bf" opacity=".2"/>
  <g filter="url(#glow)">
    <path d="M44 92 L84 52" stroke="#00eec3" stroke-width="3" />
    <path d="M84 92 L44 52" stroke="#b0f" stroke-width="3" />
  </g>
</svg>